<?xml version="1.0" encoding="UTF-8"?>
<svg id="Layer_1" data-name="Layer 1" xmlns="http://www.w3.org/2000/svg" viewBox="0 0 404.73 374.85">
  <path d="M352.77,374.85l-7.45-.02c-.47,0-.94-.14-1.31-.42-11.18-8.39-19.68-17.58-22.21-22.21-8.8-16.1-26.39-34.34-44.59-42.95-13.07-6.18-17.87-3.33-31.18-11.96-3.52-2.28-20.38-13.22-19.34-23.66.16-1.61,1-5.78.24-11.44-.06-.47-.43-2.92-1.48-5.98-1.08-3.15-2.83-6.61-5.53-7.85-.07-.03-.15-.06-.15-.06-.09-.03-.18-.06-.28-.09-9.46-2.41-18.35-.13-23.08,6.03-.75.98-3.09,4.08-3.26,15.01-.13,7.87-.4,25.34,11.13,41.33,2.24,3.1,5.94,6.49,13.35,13.27,16.82,15.39,28.6,21.71,28.12,32.88,0,.21.15.83-.12,1.34-5.42,10.19-129.71-46.54-206.32,10.98-1.59,1.19-3.84-.06-3.66-2.04,2.59-3.45,7.52-16.7,11.32-21.05,2.45-2.8,8.69-9.49,9.28-12.95.96-5.63.45-10.41-.16-13.6-.97-1.59-2.25-3.12-3.72-3.08-5.08.15-6.59,18.99-11.96,19.31-2.02.12-3.75-2.39-4.84-4.23-17.87-30.31-13.2-64.24-13.2-64.24.97-7.02,3.03-17.34,7.99-29.36.63-1.52-.51-3.21-2.15-3.16-4.53.12-9.35-.26-13.81,1.58-5.07,2.1-9.81,4.05-13.23,1.98-.93-.56-1.36-1.7-1.03-2.73,32.79-102.33,160.71-87.97,144.02-116.8-.1-.18-.23-.34-.38-.49C113.69,88.34,78.07,50.18,60.93,9.21c-.73-1.74.88-3.59,2.7-3.09,19.86,5.44,48.11,36.42,66.59,47.42,31.63,20.07,63.93,45.48,100.8,54.61,2.19.54,3.76-2.13,2.24-3.79-28.9-31.53-71.2-61.72-86.6-101.21-.81-2.08,1.53-3.99,3.39-2.75,72.93,48.47,156.87,106.25,212.56,173.27.1.12.19.25.27.39,8.33,14.77-2.5,51.3,4.86,73.33,3.02,9.05,14.14,19.09,21.65,8.37,1.66-2.36,2.83-10.48,4.77-14.17,0,0,1.61-.95,3.79-.34,7.69,2.15,9.75,38.76,1.4,67.68-3.79,13.11-14.21,40.22-46.58,65.93ZM256.56,183.1c-7.6,1.57.49,27.11,3.36,32.3,6.43,11.68,24.24,20.86,37.4,19.57,17.05-1.67,7.57-9.16.31-16.02-13.12-12.39-27.57-23.83-41.06-35.86ZM351.86,310.42c-1.22-5.41-4.13-25.38-11.39-23.15-11.05,3.39,1.15,25.16,11.39,23.15Z"/>
</svg>